<svg width="20" height="20" viewBox="0 0 20 20" fill="none" xmlns="http://www.w3.org/2000/svg">
<g clip-path="url(#clip0_9973_479)">
<g clip-path="url(#clip1_9973_479)">
<path fill-rule="evenodd" clip-rule="evenodd" d="M-3.63635 -0.227272H35.2273V1.34943H-3.63635V-0.227272ZM-3.63635 2.92188H35.2273V4.49858H-3.63635V2.92188ZM-3.63635 6.06676H35.2273V7.64347H-3.63635V6.06676ZM-3.63635 9.21165H35.2273V10.7884H-3.63635V9.21165ZM-3.63635 12.3651H35.2273V13.9332H-3.63635V12.3651ZM-3.63635 15.5057H35.2273V17.0824H-3.63635V15.5057ZM-3.63635 18.6506H35.2273V20.2273H-3.63635V18.6506Z" fill="#BD3D44"/>
<path fill-rule="evenodd" clip-rule="evenodd" d="M-3.63635 1.34943H35.2273V2.92188H-3.63635V1.34943ZM-3.63635 4.49432H35.2273V6.06676H-3.63635V4.49432ZM-3.63635 7.6392H35.2273V9.21591H-3.63635V7.6392ZM-3.63635 10.7884H35.2273V12.3651H-3.63635V10.7884ZM-3.63635 13.9332H35.2273V15.5099H-3.63635V13.9332ZM-3.63635 17.0781H35.2273V18.6548H-3.63635V17.0781Z" fill="white"/>
<path fill-rule="evenodd" clip-rule="evenodd" d="M-3.63635 -0.227272H11.9091V10.7884H-3.63635V-0.227272Z" fill="#192F5D"/>
<path fill-rule="evenodd" clip-rule="evenodd" d="M-2.34089 0.241478L-2.196 0.680398H-1.7443L-2.11078 0.948864L-1.97015 1.38778L-2.34089 1.11506L-2.70737 1.38352L-2.571 0.948864L-2.94174 0.680398H-2.47725L-2.34089 0.241478ZM0.250019 0.241478L0.390644 0.680398H0.850871L0.480133 0.948864L0.616496 1.38778L0.250019 1.11506L-0.12072 1.38352L0.0199056 0.948864L-0.346572 0.680398H0.105133L0.250019 0.241478ZM2.84093 0.241478L2.98155 0.680398H3.43752L3.07104 0.948864L3.21167 1.38778L2.84093 1.11506L2.47019 1.38352L2.61081 0.948864L2.24008 0.680398H2.7003L2.84093 0.241478ZM5.43184 0.241478L5.57246 0.680398H6.03269L5.66195 0.948864L5.80258 1.38778L5.43184 1.11506L5.0611 1.38352L5.20598 0.948864L4.83098 0.680398H5.28695L5.43184 0.241478ZM8.02275 0.241478L8.16337 0.680398H8.61934L8.25286 0.948864L8.39348 1.38778L8.02275 1.11506L7.65201 1.38352L7.79263 0.948864L7.42616 0.680398H7.88212L8.02275 0.241478ZM10.6137 0.241478L10.7543 0.680398H11.2145L10.8395 0.948864L10.9844 1.38778L10.6137 1.11506L10.2429 1.38352L10.3878 0.948864L10.0128 0.680398H10.473L10.6137 0.241478ZM-1.04544 1.34943L-0.90481 1.78409H-0.440322L-0.81106 2.0483L-0.674697 2.48722L-1.03691 2.21875L-1.40765 2.48722L-1.27555 2.0483L-1.6335 1.78409H-1.17754L-1.04544 1.34943ZM1.54547 1.34943L1.69036 1.78409H2.14633L1.77133 2.0483L1.91621 2.48722L1.54547 2.21875L1.17474 2.48722L1.31536 2.0483L0.944621 1.78409H1.40485L1.54547 1.34943ZM4.13638 1.34943L4.27701 1.78409H4.73723L4.3665 2.0483L4.50712 2.48722L4.13638 2.21875L3.76564 2.48722L3.90627 2.0483L3.53979 1.78409H3.9915L4.13638 1.34943ZM6.72729 1.34943L6.87218 1.78409H7.32814L6.95314 2.0483L7.09803 2.48722L6.72729 2.21875L6.36081 2.48722L6.49718 2.0483L6.12644 1.78409H6.59093L6.72729 1.34943ZM9.3182 1.34943L9.45883 1.78409H9.91905L9.54831 2.0483L9.68894 2.48722L9.3182 2.21875L8.94746 2.48722L9.08809 2.0483L8.72161 1.78409H9.17758L9.3182 1.34943ZM-2.34089 2.44034L-2.196 2.88352H-1.7443L-2.11078 3.15199L-1.97015 3.58665L-2.34089 3.31818L-2.70737 3.58665L-2.571 3.15199L-2.94174 2.88352H-2.47725L-2.34089 2.44034ZM0.250019 2.44034L0.390644 2.88352H0.850871L0.480133 3.15199L0.616496 3.58665L0.250019 3.31818L-0.12072 3.58665L0.0199056 3.14773L-0.346572 2.87926H0.105133L0.250019 2.44034ZM2.84093 2.44034L2.98155 2.87926H3.43752L3.07104 3.14773L3.21167 3.58239L2.84093 3.31392L2.47019 3.58239L2.61081 3.14347L2.24008 2.875H2.7003L2.84093 2.44034ZM5.43184 2.44034L5.57246 2.87926H6.03269L5.66195 3.14773L5.80258 3.58239L5.43184 3.31392L5.0611 3.58239L5.20598 3.14347L4.83098 2.875H5.28695L5.43184 2.44034ZM8.02275 2.44034L8.16337 2.87926H8.61934L8.25286 3.14773L8.39348 3.58239L8.02275 3.31392L7.65201 3.58239L7.79263 3.14347L7.42616 2.875H7.88212L8.02275 2.44034ZM10.6137 2.44034L10.7543 2.87926H11.2145L10.8395 3.14773L10.9844 3.58239L10.6137 3.31392L10.2429 3.58239L10.3878 3.14347L10.0128 2.875H10.473L10.6137 2.44034ZM-1.04544 3.5483L-0.90481 3.98296H-0.440322L-0.81106 4.25142L-0.670435 4.69034L-1.04117 4.41761L-1.41191 4.68608L-1.27129 4.25142L-1.63776 3.98296H-1.1818L-1.04544 3.5483ZM1.54547 3.5483L1.69036 3.98296H2.14633L1.77133 4.25142L1.91621 4.69034L1.54547 4.41761L1.17474 4.68608L1.31536 4.25142L0.944621 3.98296H1.40485L1.54547 3.5483ZM4.13638 3.5483L4.27701 3.98296H4.73723L4.3665 4.25142L4.50712 4.69034L4.13638 4.41761L3.76564 4.68608L3.90627 4.25142L3.53979 3.98296H3.9915L4.13638 3.5483ZM6.72729 3.5483L6.87218 3.98296H7.32814L6.95741 4.25142L7.09803 4.69034L6.72729 4.41761L6.36081 4.68608L6.49718 4.25142L6.12644 3.98296H6.59093L6.72729 3.5483ZM9.3182 3.5483L9.45883 3.98296H9.91905L9.54831 4.25142L9.68894 4.69034L9.3182 4.41761L8.94746 4.68608L9.08809 4.25142L8.72161 3.98296H9.17758L9.3182 3.5483ZM-2.34089 4.65199L-2.196 5.08665H-1.7443L-2.11078 5.35511L-1.97015 5.79403L-2.34089 5.52131L-2.70737 5.78977L-2.571 5.35511L-2.94174 5.08665H-2.47725L-2.34089 4.65199ZM0.250019 4.65199L0.390644 5.08665H0.850871L0.480133 5.35511L0.616496 5.78977L0.250019 5.52131L-0.12072 5.78977L0.0199056 5.35511L-0.346572 5.08665H0.105133L0.250019 4.65199ZM2.84093 4.65199L2.98155 5.08665H3.43752L3.07104 5.35511L3.21167 5.79403L2.84093 5.52131L2.47019 5.78977L2.61081 5.35511L2.24008 5.08665H2.7003L2.84093 4.65199ZM5.43184 4.65199L5.57246 5.08665H6.03269L5.66195 5.35511L5.80258 5.79403L5.43184 5.52131L5.0611 5.78977L5.20598 5.35511L4.83098 5.08665H5.28695L5.43184 4.65199ZM8.02275 4.65199L8.16337 5.08665H8.61934L8.25286 5.35511L8.39348 5.79403L8.02275 5.52131L7.65201 5.78977L7.79263 5.35511L7.42616 5.08665H7.88212L8.02275 4.65199ZM10.6137 4.65199L10.7543 5.08665H11.2145L10.8395 5.35511L10.9844 5.79403L10.6137 5.52131L10.2429 5.78977L10.3835 5.35511L10.0085 5.08665H10.4688L10.6137 4.65199ZM-1.04544 5.75142L-0.90481 6.19034H-0.440322L-0.81106 6.45455L-0.670435 6.89347L-1.04117 6.62074L-1.41191 6.89347L-1.27129 6.45455L-1.63776 6.18608H-1.1818L-1.04544 5.75142ZM1.54547 5.75142L1.69036 6.19034H2.14633L1.77133 6.45455L1.91621 6.89347L1.54547 6.62074L1.17474 6.89347L1.31536 6.45455L0.944621 6.18608H1.40485L1.54547 5.75142ZM4.13638 5.75142L4.27701 6.19034H4.73723L4.3665 6.45455L4.50712 6.89347L4.13638 6.62074L3.76564 6.89347L3.90627 6.45455L3.53979 6.18608H3.9915L4.13638 5.75142ZM6.72729 5.75142L6.87218 6.19034H7.32814L6.95741 6.45455L7.09803 6.89347L6.72729 6.62074L6.36081 6.89347L6.49718 6.45455L6.12644 6.18608H6.59093L6.72729 5.75142ZM9.3182 5.75142L9.45883 6.19034H9.91905L9.54831 6.45455L9.68894 6.89347L9.3182 6.62074L8.94746 6.89347L9.08809 6.45455L8.72161 6.18608H9.17758L9.3182 5.75142ZM-2.34089 6.85085L-2.196 7.28977H-1.7443L-2.11078 7.55824L-1.97015 7.98864L-2.34089 7.72443L-2.70737 7.98864L-2.571 7.55398L-2.94174 7.28551H-2.47725L-2.34089 6.85085ZM0.250019 6.85085L0.390644 7.28977H0.850871L0.480133 7.55824L0.620758 7.98864L0.250019 7.72443L-0.12072 7.98864L0.0241671 7.55398L-0.346572 7.28551H0.105133L0.250019 6.85085ZM2.84093 6.85085L2.98155 7.28977H3.43752L3.07104 7.55824L3.21167 7.98864L2.84093 7.72443L2.47019 7.98864L2.61081 7.55398L2.24008 7.28551H2.7003L2.84093 6.85085ZM5.43184 6.85085L5.57246 7.28977H6.03269L5.66195 7.55824L5.80258 7.98864L5.43184 7.72443L5.0611 7.98864L5.20598 7.55398L4.83098 7.28551H5.28695L5.43184 6.85085ZM8.02275 6.85085L8.16337 7.28977H8.61934L8.25286 7.55824L8.39348 7.98864L8.02275 7.72443L7.65201 7.98864L7.79263 7.55398L7.42616 7.28551H7.88212L8.02275 6.85085ZM10.6137 6.85085L10.7543 7.28977H11.2145L10.8395 7.55824L10.9844 7.98864L10.6137 7.72443L10.2429 7.98864L10.3878 7.55398L10.0128 7.28551H10.473L10.6137 6.85085ZM-1.04544 7.95455L-0.90481 8.3892H-0.440322L-0.81106 8.65767L-0.670435 9.09659L-1.04117 8.82386L-1.41191 9.09233L-1.27129 8.65767L-1.63776 8.3892H-1.1818L-1.04544 7.95455ZM1.54547 7.95455L1.69036 8.3892H2.14633L1.77133 8.65767L1.91621 9.09659L1.54547 8.82386L1.17474 9.09233L1.31536 8.65767L0.944621 8.3892H1.40485L1.54547 7.95455ZM4.13638 7.95455L4.27701 8.3892H4.73723L4.3665 8.65767L4.50712 9.09659L4.13638 8.82386L3.76564 9.09233L3.90627 8.65767L3.53979 8.3892H3.9915L4.13638 7.95455ZM6.72729 7.95455L6.87218 8.3892H7.32814L6.95741 8.65767L7.09803 9.09659L6.72729 8.82386L6.36081 9.09233L6.49718 8.65767L6.12644 8.3892H6.59093L6.72729 7.95455ZM9.3182 7.95455L9.45883 8.3892H9.91905L9.54831 8.65767L9.68894 9.09659L9.3182 8.82386L8.94746 9.09233L9.08809 8.65767L8.72161 8.3892H9.17758L9.3182 7.95455ZM-2.34089 9.05824L-2.196 9.4929H-1.7443L-2.11078 9.76136L-1.97015 10.196L-2.34089 9.92756L-2.70737 10.196L-2.571 9.7571L-2.94174 9.48864H-2.47725L-2.34089 9.05824ZM0.250019 9.05824L0.390644 9.4929H0.850871L0.480133 9.76136L0.620758 10.196L0.250019 9.92756L-0.12072 10.196L0.0241671 9.7571L-0.346572 9.48864H0.105133L0.250019 9.05824ZM2.84093 9.05824L2.98155 9.4929H3.43752L3.07956 9.76136L3.22019 10.196L2.84945 9.92756L2.47871 10.196L2.61934 9.7571L2.2486 9.48864H2.70883L2.84093 9.05824ZM5.43184 9.05824L5.57246 9.4929H6.03269L5.66195 9.76136L5.80258 10.196L5.43184 9.92756L5.0611 10.196L5.20598 9.7571L4.83098 9.48864H5.28695L5.43184 9.05824ZM8.02275 9.05824L8.16337 9.4929H8.61934L8.25286 9.76136L8.39348 10.196L8.02275 9.92756L7.65201 10.196L7.79263 9.7571L7.42616 9.48864H7.88212L8.02275 9.05824ZM10.6137 9.05824L10.7543 9.4929H11.2145L10.8395 9.76136L10.9844 10.196L10.6137 9.92756L10.2429 10.196L10.3878 9.7571L10.0128 9.48864H10.473L10.6137 9.05824Z" fill="white"/>
</g>
</g> 
<defs>
<clipPath id="clip0_9973_479">
<rect width="20" height="20" rx="10" fill="white"/>
</clipPath>
<clipPath id="clip1_9973_479">
<rect width="27.2727" height="20.4545" fill="white" transform="translate(-3.63635 -0.227272)"/>
</clipPath>
</defs>
</svg>
