<svg width="24" height="24" viewBox="0 0 24 24" fill="none" xmlns="http://www.w3.org/2000/svg">
<g clip-path="url(#clip0_6804_1268)">
<path d="M-4.36377 -0.272705H28.3635V24.2727H-4.36377V-0.272705Z" fill="#012169"/>
<path d="M-0.528542 -0.272705L11.9487 8.98298L24.3749 -0.272705H28.3635V2.89775L16.0908 12.0512L28.3635 21.1534V24.2727H24.2726L11.9999 15.1193L-0.221724 24.2727H-4.36377V21.2046L7.85782 12.1023L-4.36377 3.00002V-0.272705H-0.528542Z" fill="white"/>
<path d="M17.318 14.0966L28.3635 22.2273V24.2727L14.5055 14.0966H17.318ZM7.90896 15.1193L8.21578 16.9091L-1.60241 24.2727H-4.36377L7.90896 15.1193ZM28.3635 -0.272705V-0.119296L15.6305 9.49434L15.7328 7.24434L25.8067 -0.272705H28.3635ZM-4.36377 -0.272705L7.85782 8.72729H4.78964L-4.36377 1.87502V-0.272705Z" fill="#C8102E"/>
<path d="M7.96009 -0.272705V24.2727H16.1419V-0.272705H7.96009ZM-4.36377 7.90911V16.0909H28.3635V7.90911H-4.36377Z" fill="white"/>
<path d="M-4.36377 9.59661V14.5057H28.3635V9.59661H-4.36377ZM9.59646 -0.272705V24.2727H14.5055V-0.272705H9.59646Z" fill="#C8102E"/>
</g>
<defs>
<clipPath id="clip0_6804_1268">
<rect width="32.7273" height="24.5455" fill="white" transform="translate(-4.36377 -0.272705)"/>
</clipPath>
</defs>
</svg>
