<svg width="80" height="80" viewBox="0 0 136 136" fill="none" xmlns="http://www.w3.org/2000/svg">
<g id="Warning">
<path id="Vector" d="M127.638 98.8656L81.1803 18.1847C79.8347 15.8833 77.91 13.9745 75.5976 12.6479C73.2853 11.3213 70.6659 10.6234 68 10.6234C65.3342 10.6234 62.7148 11.3213 60.4024 12.6479C58.0901 13.9745 56.1653 15.8833 54.8197 18.1847L8.36189 98.8656C7.05619 101.099 6.36804 103.639 6.36804 106.226C6.36804 108.813 7.05619 111.353 8.36189 113.587C9.69262 115.899 11.6147 117.816 13.9309 119.141C16.2471 120.466 18.874 121.151 21.5422 121.125H114.458C117.124 121.149 119.749 120.463 122.063 119.138C124.377 117.814 126.298 115.898 127.628 113.587C128.935 111.354 129.625 108.814 129.627 106.228C129.629 103.641 128.942 101.1 127.638 98.8656ZM116.588 107.206C116.372 107.574 116.061 107.877 115.687 108.083C115.312 108.289 114.89 108.39 114.463 108.375H21.5422C21.1156 108.39 20.6929 108.289 20.3188 108.083C19.9448 107.877 19.6333 107.574 19.4172 107.206C19.2339 106.908 19.1369 106.565 19.1369 106.215C19.1369 105.866 19.2339 105.523 19.4172 105.225L65.875 24.5437C66.1051 24.1896 66.42 23.8986 66.7911 23.6972C67.1622 23.4957 67.5778 23.3902 68 23.3902C68.4223 23.3902 68.8379 23.4957 69.209 23.6972C69.5801 23.8986 69.895 24.1896 70.125 24.5437L116.578 105.225C116.762 105.522 116.861 105.864 116.863 106.214C116.865 106.564 116.77 106.907 116.588 107.206ZM61.625 72.25V55.25C61.625 53.5592 62.2967 51.9377 63.4922 50.7422C64.6878 49.5466 66.3093 48.875 68 48.875C69.6908 48.875 71.3123 49.5466 72.5078 50.7422C73.7034 51.9377 74.375 53.5592 74.375 55.25V72.25C74.375 73.9407 73.7034 75.5622 72.5078 76.7578C71.3123 77.9533 69.6908 78.625 68 78.625C66.3093 78.625 64.6878 77.9533 63.4922 76.7578C62.2967 75.5622 61.625 73.9407 61.625 72.25ZM76.5 93.5C76.5 95.1811 76.0015 96.8245 75.0675 98.2223C74.1335 99.6201 72.806 100.71 71.2528 101.353C69.6997 101.996 67.9906 102.165 66.3418 101.837C64.6929 101.509 63.1784 100.699 61.9896 99.5104C60.8009 98.3216 59.9913 96.8071 59.6633 95.1582C59.3354 93.5094 59.5037 91.8003 60.147 90.2472C60.7904 88.694 61.8799 87.3665 63.2777 86.4325C64.6755 85.4985 66.3189 85 68 85C70.2544 85 72.4164 85.8955 74.0104 87.4896C75.6045 89.0836 76.5 91.2456 76.5 93.5Z" fill="#E24140"/>
</g>
</svg>
